####
#
# OBJ File Generated by Meshlab
#
####
# Object Building.obj
#
# Vertices: 107
# Faces: 210
#
####
mtllib ./Building.obj.mtl

vn -0.577350 0.577350 -0.577350
v 9.999999 -0.000000 5.000000
vn 0.577350 0.577350 -0.577350
v -1.750000 -0.000000 5.000000
vn 0.301511 0.904534 -0.301511
v 1.000000 -0.000000 5.000000
vn 0.577350 0.577350 0.577350
v -1.750000 0.000000 -9.999999
vn -0.577350 0.577350 0.577350
v 10.000000 0.000000 -10.000000
vn -0.301511 -0.904534 -0.301511
v 4.500000 4.000000 0.000000
vn -0.577350 -0.577350 -0.577350
v 9.999998 4.000000 2.000000
vn 0.000000 -0.707107 -0.707107
v 5.326480 4.000000 2.000000
vn -0.577350 -0.577350 0.577350
v 9.999998 4.000000 -6.999999
vn -0.301511 -0.904534 0.301511
v 8.500000 4.000000 -4.999999
vn 0.301511 -0.904534 0.301511
v 6.500000 4.000000 -4.999999
vn 0.000000 1.000000 0.000000
v -3.499999 -0.000000 3.499999
vn 0.000000 1.000000 0.000000
v -8.499999 0.000000 -2.500000
vn 0.000000 1.000000 0.000000
v -8.499999 -0.000000 3.499999
vn 0.000000 1.000000 0.000000
v -3.499999 0.000000 -2.500000
vn -0.577350 0.577350 0.577350
v -2.000000 0.000000 -4.000000
vn -0.301511 0.904534 0.301511
v -4.999999 0.000000 -4.000000
vn 0.577350 0.577350 0.577350
v -9.999998 0.000000 -4.000000
vn 0.577350 -0.577350 -0.577350
v -10.000000 3.500000 10.000000
vn 0.577350 0.577350 -0.577350
v -10.000000 -0.000000 10.000000
vn -0.577350 -0.577350 -0.577350
v -6.999999 3.500000 9.999999
vn -0.577350 0.577350 -0.577350
v -6.999999 -0.000000 9.999999
vn -0.301511 -0.904534 -0.301511
v -6.999999 3.500000 5.000000
vn -0.301511 0.904534 -0.301511
v -6.999999 -0.000000 5.000000
vn -0.577350 -0.577350 -0.577350
v -2.000000 3.500000 5.000000
vn -0.577350 0.577350 -0.577350
v -2.000000 -0.000000 5.000000
vn -0.301511 -0.904534 -0.301511
v -2.000000 3.500000 2.000000
vn -0.301511 0.904534 -0.301511
v -2.000000 -0.000000 2.000000
vn 0.301511 -0.904534 -0.301511
v -1.750000 3.500000 2.000000
vn 0.301511 0.904534 -0.301511
v -1.750000 -0.000000 2.000000
vn 0.577350 -0.577350 -0.577350
v -1.750000 3.500000 5.000000
vn -0.301511 -0.904534 0.301511
v -2.000000 3.500000 0.250000
vn 0.301511 -0.904534 0.301511
v -1.750000 3.500000 0.250000
vn 0.301511 0.904534 0.301511
v -6.500000 0.000000 -4.000000
vn 0.577350 -0.577350 0.577350
v -9.999998 3.500000 -4.000000
vn 0.301511 0.904534 -0.301511
v -6.500000 0.000000 -4.250000
vn 0.301511 -0.904534 0.301511
v -6.500000 3.500000 -4.000000
vn 0.577350 0.577350 -0.577350
v -9.999998 0.000000 -4.250000
vn 0.301511 -0.904534 -0.301511
v -6.500000 3.500000 -4.250000
vn 0.577350 0.577350 0.577350
v -10.000000 0.000000 -10.000000
vn 0.577350 -0.577350 -0.577350
v -9.999998 3.500000 -4.250000
vn -0.577350 0.577350 -0.577350
v -2.000000 0.000000 -4.250000
vn -0.577350 -0.577350 0.577350
v -2.000000 3.500000 -9.999999
vn -0.577350 0.577350 0.577350
v -2.000000 0.000000 -9.999999
vn 0.577350 -0.577350 0.577350
v -10.000000 3.500000 -10.000000
vn -0.301511 0.904534 -0.301511
v -4.999999 0.000000 -4.250000
vn -0.577350 -0.577350 -0.577350
v -2.000000 3.500000 -4.250000
vn -0.301511 -0.904534 -0.301511
v -4.999999 3.500000 -4.250000
vn -0.301511 -0.904534 0.301511
v -4.999999 3.500000 -4.000000
vn -0.301511 0.904534 0.301511
v -2.000000 -0.000000 0.250000
vn -0.577350 -0.577350 0.577350
v -2.000000 3.500000 -4.000000
vn 0.301511 0.904534 0.301511
v -1.750000 -0.000000 0.250000
vn 0.577350 -0.577350 0.577350
v -1.750000 3.500000 -9.999999
vn -0.577350 -0.577350 0.577350
v 10.000000 3.500000 -10.000000
vn -0.904534 -0.301512 0.301511
v 9.999998 3.500000 -6.999999
vn -0.904534 -0.301511 -0.301511
v 9.999998 3.500000 2.000000
vn -0.301511 0.904534 0.301511
v 2.500000 -0.000000 5.250001
vn -0.301511 -0.904534 -0.301511
v 2.500000 3.500000 5.000000
vn -0.301511 0.904534 -0.301511
v 2.500000 -0.000000 5.000000
vn -0.577350 -0.577350 -0.577350
v 9.999999 3.500000 5.000000
vn -0.577350 0.577350 0.577350
v 9.999998 -0.000000 5.250000
vn -0.301511 -0.904534 0.301511
v 2.500000 3.500000 5.250001
vn -0.577350 0.577350 -0.577350
v 10.000000 -0.000000 10.000000
vn -0.577350 -0.577350 0.577350
v 9.999998 3.500000 5.250000
vn 0.577350 0.577350 0.577350
v -6.750000 -0.000000 5.250000
vn 0.577350 -0.577350 -0.577350
v -6.750000 3.500000 9.999999
vn 0.577350 0.577350 -0.577350
v -6.750000 -0.000000 9.999999
vn -0.577350 -0.577350 -0.577350
v 10.000000 3.500000 10.000000
vn 0.301511 0.904534 0.301511
v 1.000000 -0.000000 5.250000
vn 0.577350 -0.577350 0.577350
v -6.750000 3.500000 5.250000
vn 0.301511 -0.904534 -0.301511
v 1.000000 3.500000 5.000000
vn 0.301511 -0.904534 0.301511
v 1.000000 3.500000 5.250000
vn -0.577350 -0.577350 -0.577350
v -3.499999 4.000000 3.499999
vn 0.577350 -0.577350 -0.577350
v -8.499999 4.000000 3.499999
vn 0.577350 -0.577350 0.577350
v -8.499999 4.000000 -2.500000
vn 0.577350 -0.577350 -0.577350
v 2.500000 4.500000 0.000000
vn 0.577350 -0.577350 0.577350
v 2.500000 4.500000 -4.999999
vn -0.577350 -0.577350 0.577350
v 4.500000 4.500000 -4.999999
vn -0.577350 -0.577350 0.577350
v 8.500000 4.500000 -4.999999
vn -0.577350 -0.577350 -0.577350
v 8.500000 4.500000 0.000000
vn 0.577350 -0.577350 -0.577350
v 6.500000 4.500000 0.000000
vn 0.707107 -0.707107 0.000000
v 1.000000 4.000000 -0.428965
vn 0.577350 -0.577350 -0.577350
v 1.000000 4.000000 2.000000
vn 0.301511 -0.904534 -0.301511
v 2.500000 4.000000 0.000000
vn 0.000000 -0.707107 0.707107
v 4.043152 4.000000 -6.999999
vn 0.707107 -0.707107 0.000000
v 1.000000 4.000000 -5.489690
vn 0.577350 -0.577350 0.577350
v 1.000000 4.000000 -6.999999
vn 0.707107 -0.707107 0.000000
v 1.000000 4.000000 -5.199999
vn -0.301511 -0.904534 -0.301511
v -3.499999 3.500000 3.499999
vn 0.301511 -0.904534 -0.301511
v -8.499999 3.500000 3.499999
vn 0.301511 -0.904534 0.301511
v -8.499999 3.500000 -2.500000
vn -0.301511 -0.904534 0.301511
v -3.499999 3.500000 -2.500000
vn 0.301511 -0.904534 -0.301511
v 1.000000 3.500000 2.000000
vn 0.000000 -0.707107 -0.707107
v 5.326480 3.500000 2.000000
vn 0.707107 -0.707107 0.000000
v 1.000000 3.500000 -0.428965
vn 0.000000 -0.707107 0.707107
v 4.692959 3.500000 -6.999999
vn 0.000000 -0.707107 0.707107
v 4.043152 3.500000 -6.999999
vn 0.301511 -0.904534 0.301511
v 1.000000 3.500000 -6.999999
vn 0.707107 -0.707107 0.000000
v 1.000000 3.500000 -5.489690
vn -0.577350 -0.577350 0.577350
v -3.499999 4.000000 -2.500000
vn 0.000000 -0.707107 0.707107
v 4.692959 4.000000 -6.999999
vn -0.301511 -0.904534 -0.301511
v 8.500000 4.000000 0.000000
vn 0.301511 -0.904534 -0.301511
v 6.500000 4.000000 0.000000
vn 0.577350 -0.577350 0.577350
v 6.500000 4.500000 -4.999999
vn -0.577350 -0.577350 -0.577350
v 4.500000 4.500000 0.000000
vn -0.301511 -0.904534 0.301511
v 4.500000 4.000000 -4.999999
vn 0.301511 -0.904534 0.301511
v 2.500000 4.000000 -4.999999
# 107 vertices, 0 vertices normals


usemtl material_0
f 6//6 7//7 8//8
f 9//9 10//10 11//11
f 12//12 13//13 14//14
f 15//15 16//16 17//17
f 18//18 19//19 20//20
f 20//20 21//21 22//22
f 22//22 23//23 24//24
f 24//24 25//25 26//26
f 26//26 27//27 28//28
f 28//28 29//29 30//30
f 30//30 31//31 2//2
f 29//29 32//32 33//33
f 34//34 35//35 18//18
f 36//36 37//37 34//34
f 38//38 39//39 36//36
f 40//40 41//41 38//38
f 42//42 43//43 44//44
f 44//44 45//45 40//40
f 46//46 47//47 42//42
f 17//17 48//48 46//46
f 16//16 49//49 17//17
f 50//50 51//51 16//16
f 52//52 32//32 50//50
f 4//4 33//33 52//52
f 5//5 53//53 4//4
f 57//57 58//58 59//59
f 59//59 60//60 1//1
f 61//61 62//62 57//57
f 63//63 64//64 61//61
f 65//65 66//66 67//67
f 67//67 68//68 63//63
f 69//69 70//70 65//65
f 2//2 71//71 3//3
f 3//3 72//72 69//69
f 73//73 74//74 75//75
f 76//76 77//77 78//78
f 79//79 80//80 81//81
f 82//82 8//8 83//83
f 82//82 84//84 8//8
f 85//85 86//86 87//87
f 88//88 86//86 85//85
f 89//89 25//25 23//23
f 12//12 15//15 13//13
f 15//15 12//12 50//50
f 12//12 26//26 28//28
f 12//12 28//28 50//50
f 20//20 14//14 18//18
f 14//14 13//13 18//18
f 28//28 30//30 50//50
f 18//18 13//13 34//34
f 13//13 15//15 34//34
f 36//36 34//34 17//17
f 34//34 15//15 17//17
f 40//40 38//38 36//36
f 42//42 44//44 46//46
f 44//44 40//40 36//36
f 46//46 44//44 36//36
f 30//30 52//52 50//50
f 17//17 46//46 36//36
f 15//15 50//50 16//16
f 63//63 61//61 57//57
f 57//57 59//59 3//3
f 67//67 63//63 69//69
f 63//63 57//57 69//69
f 69//69 65//65 67//67
f 3//3 69//69 57//57
f 68//68 62//62 64//64
f 62//62 71//71 58//58
f 66//66 72//72 68//68
f 68//68 72//72 62//62
f 72//72 66//66 70//70
f 71//71 62//62 72//72
f 90//90 35//35 91//91
f 19//19 35//35 90//90
f 92//92 49//49 51//51
f 92//92 32//32 89//89
f 89//89 32//32 27//27
f 25//25 89//89 27//27
f 92//92 51//51 32//32
f 91//91 37//37 92//92
f 37//37 49//49 92//92
f 39//39 49//49 37//37
f 49//49 39//39 48//48
f 45//45 39//39 41//41
f 47//47 48//48 43//43
f 43//43 39//39 45//45
f 48//48 39//39 43//43
f 35//35 37//37 91//91
f 29//29 27//27 32//32
f 92//92 100//100 91//91
f 100//100 75//75 91//91
f 91//91 75//75 90//90
f 75//75 74//74 90//90
f 90//90 74//74 89//89
f 74//74 73//73 89//89
f 89//89 73//73 92//92
f 73//73 100//100 92//92
f 93//93 83//83 94//94
f 7//7 9//9 55//55
f 9//9 101//101 96//96
f 55//55 9//9 96//96
f 99//99 98//98 87//87
f 87//87 86//86 99//99
f 83//83 8//8 94//94
f 94//94 8//8 56//56
f 81//81 102//102 103//103
f 81//81 80//80 102//102
f 102//102 80//80 10//10
f 80//80 79//79 10//10
f 79//79 11//11 10//10
f 79//79 104//104 11//11
f 11//11 104//104 103//103
f 81//81 103//103 104//104
f 6//6 105//105 106//106
f 105//105 78//78 106//106
f 106//106 78//78 107//107
f 78//78 77//77 107//107
f 107//107 77//77 84//84
f 77//77 76//76 84//84
f 76//76 6//6 84//84
f 105//105 6//6 76//76
f 12//12 24//24 26//26
f 20//20 24//24 14//14
f 107//107 88//88 101//101
f 107//107 84//84 82//82
f 11//11 6//6 106//106
f 103//103 7//7 6//6
f 10//10 9//9 7//7
f 102//102 7//7 103//103
f 19//19 90//90 23//23
f 6//6 8//8 84//84
f 9//9 11//11 101//101
f 18//18 35//35 19//19
f 20//20 19//19 21//21
f 22//22 21//21 23//23
f 24//24 23//23 25//25
f 26//26 25//25 27//27
f 28//28 27//27 29//29
f 30//30 29//29 31//31
f 34//34 37//37 35//35
f 36//36 39//39 37//37
f 38//38 41//41 39//39
f 40//40 45//45 41//41
f 42//42 47//47 43//43
f 44//44 43//43 45//45
f 46//46 48//48 47//47
f 17//17 49//49 48//48
f 16//16 51//51 49//49
f 50//50 32//32 51//51
f 52//52 33//33 32//32
f 4//4 53//53 33//33
f 5//5 54//54 53//53
f 1//1 60//60 56//56
f 57//57 62//62 58//58
f 59//59 58//58 60//60
f 61//61 64//64 62//62
f 63//63 68//68 64//64
f 65//65 70//70 66//66
f 67//67 66//66 68//68
f 69//69 72//72 70//70
f 2//2 31//31 71//71
f 3//3 71//71 72//72
f 73//73 75//75 100//100
f 76//76 78//78 105//105
f 79//79 81//81 104//104
f 88//88 85//85 101//101
f 89//89 23//23 90//90
f 12//12 14//14 24//24
f 20//20 22//22 24//24
f 107//107 101//101 106//106
f 107//107 82//82 88//88
f 6//6 11//11 103//103
f 11//11 106//106 101//101
f 10//10 7//7 102//102
f 19//19 23//23 21//21
f 88//88 99//99 86//86
f 88//88 82//82 99//99
f 99//99 82//82 95//95
f 93//93 95//95 82//82
f 82//82 83//83 93//93
f 8//8 7//7 56//56
f 7//7 55//55 56//56
f 96//96 101//101 97//97
f 101//101 85//85 97//97
f 97//97 85//85 98//98
f 85//85 87//87 98//98
f 5//5 1//1 56//56
f 56//56 55//55 5//5
f 5//5 55//55 54//54
f 55//55 96//96 54//54
f 54//54 96//96 53//53
f 96//96 97//97 53//53
f 98//98 53//53 97//97
f 53//53 98//98 33//33
f 98//98 99//99 33//33
f 99//99 95//95 33//33
f 95//95 93//93 33//33
f 33//33 93//93 29//29
f 31//31 29//29 93//93
f 71//71 31//31 93//93
f 71//71 93//93 58//58
f 93//93 94//94 58//58
f 58//58 94//94 60//60
f 60//60 94//94 56//56
f 59//59 1//1 5//5
f 3//3 30//30 2//2
f 59//59 30//30 3//3
f 5//5 4//4 52//52
f 30//30 59//59 52//52
f 59//59 5//5 52//52
# 210 faces, 0 coords texture

# End of File
