# Blender v2.92.0 OBJ File: ''
# www.blender.org
mtllib Building.mtl
o room
v 9.999999 -0.000000 5.000000
v -1.750000 -0.000000 5.000000
v 1.000000 -0.000000 5.000000
v -1.750000 0.000000 -9.999999
v 10.000000 0.000000 -10.000000
v 4.500000 4.000000 0.000000
v 9.999998 4.000000 2.000000
v 5.326480 4.000000 2.000000
v 9.999998 4.000000 -6.999999
v 8.500000 4.000000 -4.999999
v 6.500000 4.000000 -4.999999
v -3.499999 -0.000000 3.499999
v -8.499999 0.000000 -2.500000
v -8.499999 -0.000000 3.499999
v -3.499999 0.000000 -2.500000
v -2.000000 0.000000 -4.000000
v -4.999999 0.000000 -4.000000
v -9.999998 0.000000 -4.000000
v -10.000000 3.500000 10.000000
v -10.000000 -0.000000 10.000000
v -6.999999 3.500000 9.999999
v -6.999999 -0.000000 9.999999
v -6.999999 3.500000 5.000000
v -6.999999 -0.000000 5.000000
v -2.000000 3.500000 5.000000
v -2.000000 -0.000000 5.000000
v -2.000000 3.500000 2.000000
v -2.000000 -0.000000 2.000000
v -1.750000 3.500000 2.000000
v -1.750000 -0.000000 2.000000
v -1.750000 3.500000 5.000000
v -2.000000 3.500000 0.250000
v -1.750000 3.500000 0.250000
v -6.500000 0.000000 -4.000000
v -9.999998 3.500000 -4.000000
v -6.500000 0.000000 -4.250000
v -6.500000 3.500000 -4.000000
v -9.999998 0.000000 -4.250000
v -6.500000 3.500000 -4.250000
v -10.000000 0.000000 -10.000000
v -9.999998 3.500000 -4.250000
v -2.000000 0.000000 -4.250000
v -2.000000 3.500000 -9.999999
v -2.000000 0.000000 -9.999999
v -10.000000 3.500000 -10.000000
v -4.999999 0.000000 -4.250000
v -2.000000 3.500000 -4.250000
v -4.999999 3.500000 -4.250000
v -4.999999 3.500000 -4.000000
v -2.000000 -0.000000 0.250000
v -2.000000 3.500000 -4.000000
v -1.750000 -0.000000 0.250000
v -1.750000 3.500000 -9.999999
v 10.000000 3.500000 -10.000000
v 9.999998 3.500000 -6.999999
v 9.999998 3.500000 2.000000
v 2.500000 -0.000000 5.250001
v 2.500000 3.500000 5.000000
v 2.500000 -0.000000 5.000000
v 9.999999 3.500000 5.000000
v 9.999998 -0.000000 5.250000
v 2.500000 3.500000 5.250001
v 10.000000 -0.000000 10.000000
v 9.999998 3.500000 5.250000
v -6.750000 -0.000000 5.250000
v -6.750000 3.500000 9.999999
v -6.750000 -0.000000 9.999999
v 10.000000 3.500000 10.000000
v 1.000000 -0.000000 5.250000
v -6.750000 3.500000 5.250000
v 1.000000 3.500000 5.000000
v 1.000000 3.500000 5.250000
v -3.499999 4.000000 3.499999
v -8.499999 4.000000 3.499999
v -8.499999 4.000000 -2.500000
v 2.500000 4.500000 0.000000
v 2.500000 4.500000 -4.999999
v 4.500000 4.500000 -4.999999
v 8.500000 4.500000 -4.999999
v 8.500000 4.500000 0.000000
v 6.500000 4.500000 0.000000
v 1.000000 4.000000 -0.428965
v 1.000000 4.000000 2.000000
v 2.500000 4.000000 0.000000
v 4.043152 4.000000 -6.999999
v 1.000000 4.000000 -5.489690
v 1.000000 4.000000 -6.999999
v 1.000000 4.000000 -5.199999
v -3.499999 3.500000 3.499999
v -8.499999 3.500000 3.499999
v -8.499999 3.500000 -2.500000
v -3.499999 3.500000 -2.500000
v 1.000000 3.500000 2.000000
v 5.326480 3.500000 2.000000
v 1.000000 3.500000 -0.428965
v 4.692959 3.500000 -6.999999
v 4.043152 3.500000 -6.999999
v 1.000000 3.500000 -6.999999
v 1.000000 3.500000 -5.489690
v 1.000000 3.500000 -5.199999
v -3.499999 4.000000 -2.500000
v 4.692959 4.000000 -6.999999
v 8.500000 4.000000 0.000000
v 6.500000 4.000000 0.000000
v 6.500000 4.500000 -4.999999
v 4.500000 4.500000 0.000000
v 4.500000 4.000000 -4.999999
v 2.500000 4.000000 -4.999999
vn -0.3015 -0.9045 -0.3015
vn -0.5774 -0.5774 -0.5774
vn 0.0000 -0.7071 -0.7071
vn -0.5774 -0.5774 0.5774
vn -0.3015 -0.9045 0.3015
vn 0.3015 -0.9045 0.3015
vn 0.0000 1.0000 0.0000
vn -0.5774 0.5774 0.5774
vn -0.3015 0.9045 0.3015
vn 0.5774 0.5774 0.5774
vn 0.5774 -0.5774 -0.5774
vn 0.5774 0.5774 -0.5774
vn -0.5774 0.5774 -0.5774
vn -0.3015 0.9045 -0.3015
vn 0.1439 -0.7213 -0.6775
vn 0.4865 0.6128 -0.6228
vn 0.7004 -0.1380 -0.7003
vn 0.7028 0.7027 -0.1109
vn 0.6558 -0.7527 0.0588
vn 0.3015 0.9045 0.3015
vn 0.5774 -0.5774 0.5774
vn 0.3015 0.9045 -0.3015
vn 0.3015 -0.9045 -0.3015
vn 0.1915 0.7144 0.6731
vn 0.8193 0.5675 0.0816
vn -0.6560 0.4110 0.6330
vn 0.7021 -0.1164 0.7025
vn -0.6678 -0.7292 -0.1494
vn -0.5910 0.6558 -0.4697
vn -0.7035 -0.0993 -0.7037
vn -0.1613 0.5152 -0.8418
vn 0.6789 -0.7202 -0.1431
vn 0.4834 0.8670 0.1207
vn 0.7071 -0.7071 0.0000
vn -0.0000 -0.7071 0.7071
vn 0.5172 0.6819 -0.5172
vn -0.8048 -0.4197 -0.4197
vn -0.4610 -0.1133 0.8802
vn 0.7885 -0.3961 0.4704
vn 0.4111 -0.4111 -0.8136
vn 0.5534 0.6224 0.5534
vn -0.9967 0.0575 0.0575
vn -0.0785 -0.7050 0.7049
vn 0.4375 -0.4375 -0.7856
vn 0.3949 -0.3949 -0.8295
vn 0.8085 -0.4161 0.4161
usemtl material_0
s 1
f 6//1 7//2 8//3
f 9//4 10//5 11//6
f 12//7 13//7 14//7
f 15//7 16//8 17//9
f 18//10 19//11 20//12
f 20//12 21//2 22//13
f 22//13 23//1 24//14
f 24//14 25//2 26//13
f 26//13 27//1 28//14
f 28//14 29//15 30//16
f 30//16 31//17 2//18
f 29//15 32//5 33//19
f 34//20 35//21 18//10
f 36//22 37//6 34//20
f 38//12 39//23 36//22
f 40//10 41//11 38//12
f 42//13 43//4 44//8
f 44//8 45//21 40//10
f 46//14 47//2 42//13
f 17//9 48//1 46//14
f 16//8 49//5 17//9
f 50//9 51//4 16//8
f 52//24 32//5 50//9
f 4//25 33//19 52//24
f 5//26 53//27 4//25
f 57//9 58//28 59//29
f 59//29 60//30 1//31
f 61//8 62//5 57//9
f 63//13 64//4 61//8
f 65//10 66//11 67//12
f 67//12 68//2 63//13
f 69//20 70//21 65//10
f 2//18 71//32 3//33
f 3//33 72//6 69//20
f 73//2 74//11 75//21
f 76//11 77//21 78//4
f 79//4 80//2 81//11
f 82//34 8//3 83//11
f 82//34 84//23 8//3
f 85//35 86//34 87//21
f 88//34 86//34 85//35
f 89//1 25//2 23//1
f 12//7 15//7 13//7
f 15//7 12//7 50//9
f 12//7 26//13 28//14
f 12//7 28//14 50//9
f 20//12 14//7 18//10
f 14//7 13//7 18//10
f 28//14 30//16 50//9
f 18//10 13//7 34//20
f 13//7 15//7 34//20
f 36//22 34//20 17//9
f 34//20 15//7 17//9
f 40//10 38//12 36//22
f 42//13 44//8 46//14
f 44//8 40//10 36//22
f 46//14 44//8 36//22
f 30//16 52//24 50//9
f 17//9 46//14 36//22
f 15//7 50//9 16//8
f 63//13 61//8 57//9
f 57//9 59//29 3//33
f 67//12 63//13 69//20
f 63//13 57//9 69//20
f 69//20 65//10 67//12
f 3//33 69//20 57//9
f 68//2 62//5 64//4
f 62//5 71//32 58//28
f 66//11 72//6 68//2
f 68//2 72//6 62//5
f 72//6 66//11 70//21
f 71//32 62//5 72//6
f 90//23 35//21 91//6
f 19//11 35//21 90//23
f 92//5 49//5 51//4
f 92//5 32//5 89//1
f 89//1 32//5 27//1
f 25//2 89//1 27//1
f 92//5 51//4 32//5
f 91//6 37//6 92//5
f 37//6 49//5 92//5
f 39//23 49//5 37//6
f 49//5 39//23 48//1
f 45//21 39//23 41//11
f 47//2 48//1 43//4
f 43//4 39//23 45//21
f 48//1 39//23 43//4
f 35//21 37//6 91//6
f 29//15 27//1 32//5
f 92//5 101//4 91//6
f 101//4 75//21 91//6
f 91//6 75//21 90//23
f 75//21 74//11 90//23
f 90//23 74//11 89//1
f 74//11 73//2 89//1
f 89//1 73//2 92//5
f 73//2 101//4 92//5
f 93//36 83//11 94//37
f 7//2 9//4 55//38
f 9//4 102//35 96//39
f 55//38 9//4 96//39
f 99//40 98//41 87//21
f 87//21 86//34 99//40
f 83//11 8//3 94//37
f 94//37 8//3 56//42
f 81//11 103//1 104//23
f 81//11 80//2 103//1
f 103//1 80//2 10//5
f 80//2 79//4 10//5
f 79//4 11//6 10//5
f 79//4 105//21 11//6
f 11//6 105//21 104//23
f 81//11 104//23 105//21
f 6//1 106//2 107//5
f 106//2 78//4 107//5
f 107//5 78//4 108//6
f 78//4 77//21 108//6
f 108//6 77//21 84//23
f 77//21 76//11 84//23
f 76//11 6//1 84//23
f 106//2 6//1 76//11
f 12//7 24//14 26//13
f 20//12 24//14 14//7
f 108//6 88//34 102//35
f 108//6 84//23 82//34
f 11//6 6//1 107//5
f 104//23 7//2 6//1
f 10//5 9//4 7//2
f 103//1 7//2 104//23
f 19//11 90//23 23//1
f 6//1 8//3 84//23
f 9//4 11//6 102//35
f 18//10 35//21 19//11
f 20//12 19//11 21//2
f 22//13 21//2 23//1
f 24//14 23//1 25//2
f 26//13 25//2 27//1
f 28//14 27//1 29//15
f 30//16 29//15 31//17
f 34//20 37//6 35//21
f 36//22 39//23 37//6
f 38//12 41//11 39//23
f 40//10 45//21 41//11
f 42//13 47//2 43//4
f 44//8 43//4 45//21
f 46//14 48//1 47//2
f 17//9 49//5 48//1
f 16//8 51//4 49//5
f 50//9 32//5 51//4
f 52//24 33//19 32//5
f 4//25 53//27 33//19
f 5//26 54//43 53//27
f 1//31 60//30 56//42
f 57//9 62//5 58//28
f 59//29 58//28 60//30
f 61//8 64//4 62//5
f 63//13 68//2 64//4
f 65//10 70//21 66//11
f 67//12 66//11 68//2
f 69//20 72//6 70//21
f 2//18 31//17 71//32
f 3//33 71//32 72//6
f 73//2 75//21 101//4
f 76//11 78//4 106//2
f 79//4 81//11 105//21
f 88//34 85//35 102//35
f 89//1 23//1 90//23
f 12//7 14//7 24//14
f 20//12 22//13 24//14
f 108//6 102//35 107//5
f 108//6 82//34 88//34
f 6//1 11//6 104//23
f 11//6 107//5 102//35
f 10//5 7//2 103//1
f 19//11 23//1 21//2
f 88//34 99//40 86//34
f 99//40 88//34 100//44
f 88//34 82//34 100//44
f 100//44 82//34 95//45
f 93//36 95//45 82//34
f 82//34 83//11 93//36
f 8//3 7//2 56//42
f 7//2 55//38 56//42
f 96//39 102//35 97//46
f 102//35 85//35 97//46
f 97//46 85//35 98//41
f 85//35 87//21 98//41
f 5//26 1//31 56//42
f 56//42 55//38 5//26
f 5//26 55//38 54//43
f 55//38 96//39 54//43
f 54//43 96//39 53//27
f 96//39 97//46 53//27
f 98//41 53//27 97//46
f 53//27 98//41 33//19
f 98//41 99//40 33//19
f 100//44 33//19 99//40
f 100//44 95//45 33//19
f 95//45 93//36 33//19
f 33//19 93//36 29//15
f 31//17 29//15 93//36
f 71//32 31//17 93//36
f 71//32 93//36 58//28
f 93//36 94//37 58//28
f 58//28 94//37 60//30
f 60//30 94//37 56//42
f 59//29 1//31 5//26
f 3//33 30//16 2//18
f 59//29 30//16 3//33
f 5//26 4//25 52//24
f 30//16 59//29 52//24
f 59//29 5//26 52//24
